<?xml version="1.0" standalone="no"?>
<!DOCTYPE svg PUBLIC "-//W3C//DTD SVG 20010904//EN"
 "http://www.w3.org/TR/2001/REC-SVG-20010904/DTD/svg10.dtd">
<svg version="1.0" xmlns="http://www.w3.org/2000/svg"
 width="1024.000000pt" height="1024.000000pt" viewBox="0 0 1024.000000 1024.000000"
 preserveAspectRatio="xMidYMid meet">
<metadata>
Created by potrace 1.14, written by Peter Selinger 2001-2017
</metadata>
<g transform="translate(0.000000,1024.000000) scale(0.100000,-0.100000)"
fill="#000000" stroke="none">
<path d="M0 5375 l0 -4865 25 0 c45 0 53 -46 39 -226 l-7 -80 -28 4 -29 4 0
-106 0 -106 5120 0 5120 0 0 5120 0 5120 -5120 0 -5120 0 0 -4865z m5734 3156
c15 -17 18 -51 21 -293 2 -150 4 -276 4 -280 1 -5 16 -8 35 -8 80 0 560 -113
589 -139 18 -15 20 -14 38 9 37 49 53 60 85 60 40 0 129 -57 129 -84 0 -18
-61 -82 -712 -743 l-238 -242 -65 15 c-47 11 -125 16 -280 17 -228 2 -353 -14
-525 -64 -148 -44 -434 -211 -601 -351 -161 -135 -354 -361 -415 -484 -21 -44
-50 -91 -63 -103 l-24 -23 -17 26 c-47 72 -26 145 80 271 401 479 719 715
1085 805 238 59 272 63 503 65 l218 1 17 26 c9 15 53 65 96 113 43 47 77 87
75 89 -2 3 -54 12 -114 21 -152 23 -463 23 -610 1 -163 -25 -294 -61 -440
-121 -193 -78 -286 -132 -540 -310 -79 -55 -80 -56 -87 -108 -3 -29 -6 -78 -7
-109 -1 -66 -8 -88 -27 -88 -8 0 -50 -34 -93 -75 -68 -65 -83 -75 -115 -75
-20 0 -69 -15 -112 -35 -41 -19 -79 -35 -83 -35 -5 0 -17 -21 -28 -47 -11 -27
-47 -79 -79 -118 -33 -38 -102 -123 -153 -187 -52 -65 -101 -118 -109 -118 -9
0 -23 6 -31 14 -16 14 -111 21 -233 18 l-57 -2 -10 -52 c-16 -79 -49 -331 -56
-433 -6 -84 18 -522 31 -571 5 -19 9 -20 34 -11 21 8 38 7 67 -2 35 -12 42
-11 77 9 33 20 42 21 76 11 48 -14 75 -51 83 -114 8 -57 68 -255 104 -342 164
-393 461 -780 791 -1027 253 -190 670 -345 1037 -387 119 -14 368 -18 480 -8
l90 8 18 -31 c10 -17 41 -54 68 -84 48 -52 51 -54 102 -52 47 1 59 -4 117 -45
36 -26 75 -52 88 -58 21 -11 22 -10 22 38 0 41 -4 51 -20 56 -16 5 -163 145
-462 442 l-67 67 -150 5 c-122 5 -154 9 -167 23 -24 24 -14 40 67 97 l73 51
175 0 c197 0 196 0 281 -80 25 -23 113 -107 195 -185 164 -156 199 -186 233
-204 l22 -12 0 -305 0 -304 -24 -11 c-36 -17 -90 20 -121 81 -15 29 -51 71
-92 107 -37 32 -77 67 -89 79 -42 40 -75 63 -87 59 -7 -2 -127 -9 -267 -15
-187 -9 -298 -9 -417 -1 -524 36 -927 189 -1348 511 -189 145 -395 377 -602
680 -13 19 -26 36 -28 38 -10 10 -35 -62 -35 -100 0 -28 -9 -57 -24 -82 l-24
-40 -58 115 c-148 292 -248 557 -294 779 -12 58 -26 109 -31 115 -5 5 -9 34
-9 66 0 31 -7 119 -16 195 -18 152 -15 423 6 589 24 184 62 412 80 475 29 103
34 167 14 178 -26 14 -52 3 -73 -32 -36 -59 -90 -281 -111 -451 -6 -49 -17
-137 -25 -195 -8 -58 -16 -125 -17 -150 l-3 -45 -45 0 -45 0 3 75 c8 195 77
568 138 744 23 68 25 83 15 116 -17 58 -14 76 20 104 35 30 73 33 126 11 45
-19 43 -19 43 6 0 51 249 464 358 595 289 348 556 566 932 761 246 128 609
238 885 267 160 17 492 23 587 11 l58 -7 2 228 c2 126 -1 246 -6 267 -7 33 -6
41 14 62 28 30 70 32 94 6z m-690 -137 c9 -3 25 -21 37 -40 18 -30 19 -39 9
-64 -13 -31 -19 -33 -135 -45 -313 -32 -728 -149 -1014 -286 -68 -32 -128 -59
-133 -59 -23 0 -58 51 -58 83 0 57 48 87 305 192 231 95 511 168 780 204 161
21 188 23 209 15z m1081 -74 c309 -68 573 -160 834 -292 308 -156 506 -301
761 -557 165 -166 390 -430 390 -458 0 -20 -29 -42 -64 -48 -57 -11 -96 14
-179 117 -144 179 -434 465 -627 619 -45 35 -186 129 -195 129 -3 0 -5 -143
-5 -319 0 -242 -3 -326 -13 -350 -12 -28 -143 -178 -328 -376 -36 -38 -109
-122 -163 -185 -53 -63 -117 -138 -142 -167 l-44 -52 0 -340 0 -341 -220 0
-220 0 0 -69 0 -68 -77 -7 c-42 -3 -100 -6 -128 -6 -49 0 -53 2 -59 26 -4 15
-34 53 -66 86 -108 108 -253 153 -416 130 -47 -7 -111 -22 -142 -34 -161 -60
-315 -212 -379 -374 -25 -64 -27 -80 -27 -224 0 -172 12 -239 64 -339 102
-197 281 -324 495 -350 58 -7 87 -4 194 20 69 16 134 29 144 29 15 0 17 15 17
165 l0 165 -235 0 -235 0 0 98 c0 55 -3 133 -6 175 l-7 77 360 0 361 0 1 -357
c1 -196 4 -359 7 -362 3 -4 132 -8 287 -11 l282 -5 5 -325 5 -325 85 -90 c46
-49 127 -133 180 -185 l95 -95 0 -435 c0 -347 3 -437 13 -445 8 -7 14 -37 15
-82 1 -58 -2 -75 -18 -93 -19 -21 -159 -110 -173 -110 -4 0 -23 13 -42 29
l-35 29 -3 471 -3 471 -197 197 c-109 109 -210 213 -225 232 -26 31 -30 33
-73 26 -25 -3 -87 -17 -137 -30 -95 -24 -378 -69 -502 -80 -38 -3 -115 -1
-170 5 -280 30 -540 133 -770 303 -233 173 -359 339 -474 624 -51 126 -65 181
-91 353 -43 290 -20 541 69 771 40 104 130 269 197 359 155 210 401 405 649
513 148 65 368 107 555 107 222 0 398 -42 668 -156 18 -8 39 -14 47 -14 7 0
65 57 127 127 62 70 140 157 174 193 66 72 339 387 394 455 l35 44 93 -6 92
-5 0 260 c0 143 -3 272 -6 288 -5 25 -20 36 -108 78 -226 110 -472 196 -700
246 -120 26 -133 31 -158 61 -32 38 -34 51 -12 84 20 31 56 32 179 5z m-2761
-542 c-5 -8 -2 -9 9 -5 9 3 19 2 22 -3 4 -6 1 -10 -4 -10 -6 0 -11 -5 -11 -12
0 -9 3 -9 12 0 7 7 20 12 31 12 12 0 16 4 11 13 -10 15 25 -10 44 -32 52 -63
-71 -164 -143 -117 -14 9 -25 22 -24 29 0 9 2 9 6 0 2 -7 10 -13 16 -13 5 0 7
3 4 7 -4 3 -2 12 4 20 6 7 9 13 6 13 -4 0 0 18 8 40 16 45 4 62 -19 28 -9 -12
-18 -19 -21 -16 -4 3 6 18 22 32 30 28 38 32 27 14z m-61 -78 c-3 -12 -8 -19
-11 -16 -5 6 5 36 12 36 2 0 2 -9 -1 -20z m30 5 c-3 -9 -8 -14 -10 -11 -3 3
-2 9 2 15 9 16 15 13 8 -4z m-173 -277 c0 -17 -62 -99 -140 -183 -198 -215
-464 -634 -586 -921 -153 -362 -215 -704 -214 -1181 0 -285 24 -510 81 -758
50 -220 211 -616 309 -760 14 -22 46 -76 70 -120 70 -127 309 -430 471 -595
339 -347 816 -641 1244 -765 351 -102 564 -134 967 -142 l308 -6 24 26 c43 46
136 58 202 25 37 -18 64 -73 64 -129 l0 -47 -47 -11 c-95 -22 -112 -22 -151
-2 -32 16 -45 17 -92 9 -77 -14 -504 -13 -630 1 -332 36 -626 106 -915 218
-208 80 -559 286 -767 449 -209 165 -541 524 -696 755 -129 193 -255 425 -335
619 -46 111 -132 374 -162 498 -60 239 -92 633 -75 910 27 431 82 682 232
1057 76 190 243 475 408 697 58 78 112 151 120 162 34 49 153 186 200 230 l52
48 28 -33 c16 -19 29 -41 30 -51z m4392 -580 c161 -220 325 -540 407 -792 79
-243 118 -470 129 -756 l7 -165 205 -2 c113 -1 210 -2 217 -2 20 -2 25 -38 9
-75 l-15 -36 -209 0 c-241 0 -222 10 -222 -110 0 -87 -33 -282 -76 -454 -78
-309 -203 -584 -378 -831 -90 -127 -209 -285 -214 -285 -11 0 -114 94 -148
135 l-36 44 65 83 c167 215 318 501 399 758 39 126 73 259 66 265 -1 1 -48 25
-104 53 -55 28 -106 57 -113 66 -12 14 -47 16 -256 16 l-243 0 1 -910 c1 -500
2 -910 3 -910 1 0 17 15 36 33 19 17 83 77 142 132 262 240 470 515 615 813
42 86 46 91 70 85 47 -11 60 -30 49 -71 -22 -82 -189 -344 -394 -617 -82 -109
-248 -288 -385 -414 -68 -63 -128 -126 -133 -140 -28 -84 -30 -85 -81 -40
l-35 31 0 1004 c0 620 -4 1004 -9 1004 -18 0 -250 213 -261 240 -18 44 -3 72
86 161 l86 84 -4 622 c-3 568 -1 624 14 639 21 21 68 21 84 0 20 -28 23 -110
21 -594 l-2 -463 428 1 427 2 0 36 c0 70 -41 287 -76 407 -43 144 -127 354
-181 450 -92 165 -215 347 -286 422 l-31 33 49 62 c27 35 67 87 89 116 l41 52
32 -34 c18 -19 70 -85 115 -148z m396 -130 c49 -53 193 -347 254 -518 63 -176
158 -531 158 -588 0 -45 -19 -79 -51 -93 -24 -9 -33 -9 -54 5 -27 18 -31 30
-40 121 -6 65 -59 280 -101 410 -47 144 -153 377 -258 562 l-35 62 25 31 c31
37 71 40 102 8z m-4444 -759 c-12 -44 -14 -211 -14 -929 0 -492 -4 -890 -9
-910 -5 -19 -9 -27 -10 -17 -1 10 -14 44 -30 75 -69 137 -66 93 -66 962 l0
785 45 72 45 73 26 -29 c26 -28 26 -29 13 -82z m3777 60 c20 -22 29 -41 29
-65 0 -70 -35 -104 -109 -104 -32 0 -45 6 -70 35 -42 49 -41 87 3 131 28 28
42 34 76 34 34 0 47 -6 71 -31z m1561 -759 c46 -13 105 -77 113 -124 9 -48
-18 -125 -58 -164 -18 -17 -52 -36 -77 -42 -68 -18 -116 2 -157 64 -45 66 -46
134 -5 195 51 75 100 94 184 71z m-6242 -559 c0 -69 78 -359 141 -524 75 -197
188 -431 251 -520 l20 -27 -32 -30 c-18 -17 -36 -30 -40 -30 -12 0 -90 129
-169 280 -101 195 -194 449 -255 703 -29 123 -31 143 -13 150 21 9 97 7 97 -2z
m6087 -86 c-9 -8 -21 -15 -27 -15 -7 0 -2 9 11 19 28 22 39 20 16 -4z m-419
-263 c-6 -24 -13 -41 -15 -38 -2 2 1 23 7 46 6 23 13 40 15 38 2 -2 -1 -23 -7
-46z m-82 -233 c-9 -19 -15 -29 -16 -22 0 15 22 64 27 60 2 -2 -3 -19 -11 -38z
m-35 -86 c-12 -20 -14 -14 -5 12 4 9 9 14 11 11 3 -2 0 -13 -6 -23z m-38 -87
c-16 -33 -33 -56 -43 -55 -8 0 -10 3 -3 5 6 3 23 30 38 60 15 30 29 53 32 51
2 -3 -8 -30 -24 -61z m-4183 -61 c-7 -8 -20 -15 -29 -15 -11 0 -8 5 9 14 33
19 35 19 20 1z m510 -101 c0 -2 -9 0 -20 6 -11 6 -20 13 -20 16 0 2 9 0 20 -6
11 -6 20 -13 20 -16z m3858 -84 c28 -27 37 -62 22 -92 -50 -96 -190 -307 -321
-483 -79 -107 -322 -382 -371 -420 -7 -5 -44 -37 -83 -70 -38 -33 -72 -60 -73
-61 -2 -1 14 -20 37 -43 39 -39 63 -93 56 -128 -2 -10 -6 -30 -10 -46 -7 -35
-68 -103 -111 -123 -106 -51 -221 31 -240 169 -8 58 15 107 74 155 25 20 64
57 86 81 23 24 56 53 74 66 92 63 378 366 494 524 45 61 194 285 208 311 33
63 113 180 124 180 7 0 22 -9 34 -20z m-3956 -102 c24 -12 48 -61 48 -98 0
-62 -64 -117 -120 -105 -16 4 -45 24 -64 46 -34 37 -41 57 -36 104 5 59 103
89 172 53z m2940 -815 c-19 -34 -567 -573 -583 -573 -9 0 -24 16 -35 36 l-19
35 68 65 c37 35 67 70 68 77 0 9 2 9 6 0 2 -7 9 -13 14 -13 6 0 7 5 4 10 -8
13 21 43 34 36 5 -3 8 2 7 12 0 10 6 17 16 17 9 0 20 4 25 9 5 5 2 6 -7 1 -8
-4 2 9 23 29 20 20 42 36 47 36 6 0 10 6 10 14 0 8 8 14 19 13 10 0 34 11 52
26 55 45 143 107 152 107 9 0 16 5 67 49 41 35 44 37 32 14z m-1854 -530 c-10
-2 -28 -2 -40 0 -13 2 -5 4 17 4 22 1 32 -1 23 -4z m829 -212 c72 -52 105
-169 69 -240 -23 -43 -91 -99 -135 -111 -98 -26 -178 34 -211 159 -31 119 53
220 186 221 41 0 59 -6 91 -29z m-6046 -1652 c29 -20 29 -21 29 -120 0 -54 3
-99 6 -99 4 0 23 10 42 22 34 21 34 22 14 31 -21 10 -50 73 -38 84 13 13 79
-33 92 -64 19 -43 5 -75 -47 -113 -51 -36 -82 -38 -114 -5 -24 23 -25 29 -25
155 0 71 3 130 6 130 3 0 19 -9 35 -21z"/>
<path d="M5072 7684 c-293 -29 -571 -109 -833 -240 -263 -131 -430 -248 -650
-454 -247 -231 -457 -515 -554 -748 -15 -36 -24 -44 -59 -53 -23 -5 -47 -12
-54 -14 -9 -3 -12 -24 -11 -67 1 -35 -3 -76 -10 -92 -6 -16 -10 -30 -9 -31 2
-1 65 -5 140 -8 120 -5 139 -4 156 11 25 22 133 156 206 255 42 58 63 77 80
77 44 0 132 55 233 145 l101 90 -5 121 -6 120 31 35 c27 30 36 34 80 34 38 0
56 5 74 22 65 60 297 209 443 283 190 97 294 135 461 169 329 68 663 65 1013
-7 34 -7 37 -5 160 121 69 71 127 132 129 136 3 9 -114 42 -229 65 -222 45
-605 58 -887 30z"/>
<path d="M2824 4636 c-6 -16 21 -126 74 -296 46 -151 162 -420 181 -420 9 0
31 45 31 64 0 8 -25 66 -55 130 -56 119 -110 278 -149 440 -21 85 -25 91 -49
94 -18 2 -29 -2 -33 -12z"/>
<path d="M5052 6345 c-222 -41 -414 -141 -591 -310 -263 -250 -393 -571 -378
-934 14 -342 146 -644 377 -864 145 -138 275 -210 479 -265 88 -23 112 -26
286 -25 210 0 317 16 370 55 28 21 39 22 175 20 80 -1 184 -5 233 -8 l87 -7 0
110 0 110 -57 6 c-32 4 -146 7 -253 7 -185 1 -201 -1 -315 -30 -274 -69 -495
-42 -704 87 -130 81 -254 220 -331 373 -97 192 -134 474 -90 690 39 192 126
348 274 495 106 105 213 172 343 217 116 41 296 50 419 23 75 -17 242 -87 255
-106 3 -5 102 -8 230 -7 l224 3 3 154 c1 85 -1 158 -6 163 -5 5 -33 11 -63 14
l-54 5 -55 -67 c-55 -67 -111 -124 -120 -124 -3 0 -16 16 -30 36 -30 42 -136
115 -209 144 -127 50 -336 64 -499 35z"/>
<path d="M6950 5300 c0 -48 -4 -56 -53 -113 -76 -88 -107 -131 -107 -150 0 -9
15 -27 34 -39 18 -13 59 -47 90 -75 l57 -53 290 0 291 0 38 -32 c42 -37 199
-132 205 -126 9 9 26 388 23 505 l-3 123 -410 0 c-225 0 -420 3 -432 6 -22 6
-23 3 -23 -46z"/>
<path d="M28 243 c7 -3 16 -2 19 1 4 3 -2 6 -13 5 -11 0 -14 -3 -6 -6z"/>
</g>
</svg>
