<?xml version="1.0" standalone="no"?>
<!DOCTYPE svg PUBLIC "-//W3C//DTD SVG 20010904//EN"
 "http://www.w3.org/TR/2001/REC-SVG-20010904/DTD/svg10.dtd">
<svg version="1.0" xmlns="http://www.w3.org/2000/svg"
 width="1024.000000pt" height="1024.000000pt" viewBox="0 0 1024.000000 1024.000000"
 preserveAspectRatio="xMidYMid meet">
<metadata>
Created by potrace 1.14, written by Peter Selinger 2001-2017
</metadata>
<g transform="translate(0.000000,1024.000000) scale(0.100000,-0.100000)"
fill="#000000" stroke="none">
<path d="M0 5375 c0 -4722 1 -4865 18 -4865 11 0 27 -9 36 -19 15 -16 16 -31
10 -103 l-7 -85 -28 3 -29 4 0 -155 0 -155 5120 0 5120 0 0 5120 0 5120 -5120
0 -5120 0 0 -4865z m5735 3155 c16 -17 17 -46 19 -297 l1 -278 60 -7 c134 -17
523 -110 569 -136 25 -15 30 -15 34 -2 11 31 61 70 89 70 37 0 128 -59 128
-83 0 -17 -275 -304 -770 -804 l-180 -182 -65 15 c-94 20 -355 29 -478 15
-306 -33 -477 -98 -767 -290 -216 -143 -491 -433 -576 -607 -21 -44 -50 -91
-63 -103 l-24 -23 -17 26 c-24 37 -29 95 -11 137 34 81 362 452 505 572 85 71
224 168 340 236 96 57 237 109 395 146 193 44 341 59 517 51 l136 -7 18 28
c10 15 54 67 98 116 44 48 78 89 76 91 -14 11 -149 28 -297 37 -466 28 -866
-79 -1242 -333 -214 -144 -250 -171 -250 -187 -1 -9 -5 -61 -9 -116 -7 -81
-11 -101 -27 -110 -10 -5 -52 -42 -94 -82 -64 -59 -82 -71 -111 -71 -19 0 -73
-17 -121 -38 -81 -36 -88 -42 -107 -84 -10 -25 -60 -94 -111 -155 -51 -60
-119 -145 -151 -187 -33 -43 -64 -78 -70 -78 -5 0 -21 7 -34 16 -19 12 -56 17
-155 19 -116 3 -131 1 -140 -14 -11 -21 -46 -256 -62 -421 -10 -96 -9 -160 5
-366 9 -137 20 -259 23 -271 5 -20 8 -20 21 -8 18 18 48 18 88 1 27 -11 34
-10 67 12 28 18 44 22 67 17 37 -8 80 -50 86 -84 95 -507 437 -1044 885 -1391
223 -173 592 -325 938 -385 189 -33 465 -41 642 -19 42 5 47 4 57 -18 6 -14
37 -53 69 -87 56 -61 58 -62 99 -56 39 6 48 3 125 -50 113 -77 110 -76 110
-18 0 42 -3 51 -27 65 -16 9 -136 123 -268 253 -132 131 -250 241 -263 246
-13 5 -78 9 -145 9 -194 0 -219 29 -102 114 l70 51 178 3 c176 4 179 3 216
-21 21 -14 54 -41 72 -60 85 -89 406 -380 427 -388 l22 -9 0 -305 0 -305 -25
-12 c-21 -9 -30 -7 -63 16 -23 15 -48 46 -62 74 -22 45 -123 144 -219 214
l-36 26 -120 -9 c-179 -15 -584 -15 -705 0 -346 41 -742 180 -1007 353 -275
179 -534 431 -718 698 -33 47 -73 104 -89 128 l-31 43 -17 -21 c-11 -14 -18
-39 -18 -65 0 -71 -36 -140 -58 -112 -5 7 -50 95 -100 197 -103 209 -197 465
-236 646 -15 65 -31 128 -36 139 -5 11 -11 61 -14 110 -2 50 -10 140 -16 200
-27 246 23 772 100 1050 23 86 25 129 5 145 -22 18 -60 -1 -79 -39 -22 -42
-83 -272 -95 -361 -22 -156 -51 -387 -53 -430 -3 -44 -4 -45 -38 -46 -59 -1
-61 1 -54 75 22 252 78 552 137 733 27 86 30 102 19 131 -19 52 -15 73 20 102
28 24 38 26 77 21 25 -3 55 -13 68 -21 22 -15 23 -14 23 12 0 16 8 42 18 58
10 17 34 59 54 95 72 131 92 166 117 204 14 21 31 46 36 55 66 103 118 173
171 231 18 19 70 77 115 129 260 293 708 591 1074 713 185 62 386 114 515 134
128 19 592 31 668 16 l52 -9 2 231 c1 272 2 249 -6 279 -14 58 69 102 109 57z
m-691 -136 c9 -3 25 -21 36 -39 17 -27 18 -37 9 -63 -12 -34 -16 -36 -136 -47
-308 -29 -750 -154 -1013 -285 -130 -65 -132 -65 -163 -34 -31 31 -35 69 -10
103 25 37 325 171 503 225 172 52 380 98 540 121 185 25 212 28 234 19z m1202
-104 c288 -73 533 -166 760 -288 398 -212 617 -398 994 -842 119 -140 128
-172 58 -190 -55 -15 -100 2 -141 52 -105 130 -169 201 -322 354 -206 206
-319 305 -447 390 -53 35 -99 64 -102 64 -3 0 -6 -145 -6 -322 0 -317 -1 -324
-23 -360 -12 -20 -98 -120 -192 -223 -190 -209 -308 -343 -407 -463 l-67 -81
-2 -342 -2 -341 -106 3 c-58 2 -157 2 -218 1 l-113 -2 0 -69 0 -68 -92 -5
c-136 -7 -161 -2 -177 33 -26 58 -132 142 -229 181 -47 18 -77 22 -167 22
-181 0 -300 -46 -432 -169 -141 -130 -193 -241 -200 -431 -8 -189 24 -317 115
-454 127 -192 380 -306 582 -263 36 8 100 21 143 30 l77 16 0 170 0 170 -235
-7 -235 -7 0 138 c0 76 -3 155 -6 176 l-7 37 357 0 c196 0 356 -3 356 -7 0 -5
3 -163 6 -353 3 -190 7 -351 9 -357 3 -10 74 -13 287 -15 l283 -3 5 -326 5
-326 27 -24 c14 -13 79 -82 143 -154 65 -71 132 -141 150 -155 32 -25 32 -25
37 -135 3 -60 4 -258 2 -439 -2 -279 0 -331 12 -344 11 -10 14 -34 12 -91 l-3
-76 -85 -57 c-47 -31 -90 -57 -95 -57 -6 -1 -26 12 -45 28 l-35 29 0 464 0
464 -48 57 c-27 31 -115 121 -195 199 -81 79 -163 161 -182 184 l-35 40 -120
-27 c-147 -34 -384 -74 -523 -88 -179 -19 -403 17 -601 95 -283 111 -568 330
-695 533 -190 303 -261 556 -261 926 1 144 5 210 19 273 98 458 411 849 855
1068 302 149 725 175 1041 65 161 -56 254 -92 267 -103 10 -8 20 -5 40 13 24
22 224 244 353 392 196 225 299 344 325 377 l30 37 92 -5 93 -5 0 269 c0 148
-3 278 -6 289 -3 14 -45 39 -132 81 -222 108 -523 209 -721 245 -61 11 -80 18
-108 46 -39 40 -41 58 -10 91 20 22 28 24 78 18 31 -3 128 -24 215 -46z
m-2777 -562 c6 10 10 8 14 -9 13 -48 -47 -109 -108 -109 -22 0 -24 2 -13 14
10 11 16 11 27 2 12 -9 13 -8 6 3 -6 11 -4 13 8 8 22 -8 22 2 0 20 -11 9 -6 8
11 -2 16 -9 26 -12 22 -7 -3 6 0 13 6 15 7 3 2 6 -12 7 -25 1 -25 1 -5 18 11
9 19 26 17 37 -3 17 -1 17 7 5 9 -12 13 -13 20 -2z m-309 -300 c0 -9 -31 -54
-70 -100 -331 -394 -518 -679 -649 -988 -18 -41 -36 -83 -42 -93 -15 -27 -85
-258 -108 -357 -52 -219 -88 -624 -76 -860 11 -235 53 -529 99 -705 22 -81 98
-296 141 -400 72 -170 259 -495 359 -621 25 -33 68 -87 94 -121 46 -58 153
-180 232 -265 119 -127 366 -328 547 -444 105 -68 374 -208 493 -258 223 -91
655 -188 920 -206 80 -5 241 -10 359 -10 l213 0 34 29 c46 41 111 50 172 25
54 -23 82 -68 82 -135 l0 -46 -52 -11 c-80 -18 -111 -18 -149 0 -27 13 -46 14
-94 7 -89 -14 -473 -14 -610 0 -321 33 -650 110 -919 215 -309 121 -678 353
-921 577 -243 225 -471 497 -625 744 -242 389 -406 823 -472 1250 -20 133 -23
186 -23 470 0 336 11 473 56 700 43 216 148 517 254 723 86 169 237 411 343
550 48 63 94 124 102 135 32 47 160 194 205 236 l47 43 28 -33 c16 -19 29 -42
30 -51z m4283 -440 c128 -142 301 -423 410 -663 149 -331 219 -638 234 -1028
l6 -168 201 1 c111 1 209 1 218 1 25 -1 31 -35 14 -75 l-15 -36 -209 0 c-240
0 -222 8 -222 -98 0 -94 -33 -293 -74 -452 -42 -164 -52 -195 -105 -335 -46
-121 -48 -125 -164 -335 -45 -83 -259 -388 -318 -454 -10 -11 -95 60 -149 125
l-42 49 39 48 c174 213 348 535 426 792 43 140 72 258 65 265 -1 1 -41 22 -88
45 -47 23 -99 53 -117 66 -31 24 -34 24 -273 24 l-242 0 3 -910 c1 -500 3
-910 5 -910 3 0 120 106 203 185 94 89 264 275 322 351 74 97 196 296 255 416
31 62 58 114 59 116 2 2 19 -4 39 -12 61 -26 57 -40 -79 -271 -182 -308 -396
-569 -708 -864 -68 -63 -92 -93 -101 -124 -6 -22 -17 -42 -24 -45 -7 -2 -28
12 -47 31 l-35 35 0 1001 c0 604 -4 1001 -9 1001 -17 0 -236 201 -253 232 -11
19 -15 42 -12 57 4 14 44 65 91 112 l84 85 -2 623 c-1 681 -3 654 56 654 34 0
54 -28 56 -78 0 -22 2 -256 3 -520 2 -443 3 -480 19 -479 9 0 203 1 430 2
l413 2 -3 38 c-9 88 -45 295 -64 358 -11 38 -27 93 -35 122 -63 228 -283 621
-447 799 l-30 32 57 73 c32 40 70 90 84 110 15 21 31 37 36 38 5 0 22 -15 39
-32z m500 -268 c26 -21 138 -230 204 -383 76 -177 213 -646 213 -732 0 -36
-30 -80 -60 -90 -46 -15 -75 29 -83 125 -10 113 -98 424 -165 585 -32 77 -141
294 -196 392 l-35 62 25 31 c30 35 61 38 97 10z m-4436 -734 c-9 -16 -13 -255
-17 -956 -3 -514 -7 -937 -8 -940 -2 -3 -9 11 -16 30 -8 19 -29 69 -47 110
-33 75 -33 76 -40 290 -5 118 -5 485 -2 814 l6 600 38 59 c22 33 39 65 39 71
1 6 14 -4 30 -23 25 -29 27 -37 17 -55z m3774 33 c64 -68 20 -169 -74 -169
-39 0 -49 5 -76 35 -35 40 -38 62 -16 105 21 40 53 60 98 60 31 0 45 -7 68
-31z m1561 -759 c46 -13 103 -76 112 -124 10 -53 -17 -128 -60 -165 -86 -76
-195 -57 -243 42 -31 64 -28 123 9 179 46 70 101 90 182 68z m-6232 -631 c30
-211 189 -639 325 -878 36 -63 65 -118 65 -122 0 -4 -14 -19 -32 -34 -30 -25
-33 -26 -43 -10 -5 9 -25 40 -44 68 -142 219 -280 560 -362 892 -40 166 -42
160 37 164 l42 2 12 -82z m6070 -14 c-7 -8 -17 -15 -23 -15 -6 0 -2 7 9 15 25
19 30 19 14 0z m-376 -926 c14 -17 26 -38 26 -48 0 -17 -110 -203 -191 -323
-125 -184 -320 -425 -433 -533 -82 -78 -176 -165 -205 -188 l-33 -27 41 -45
c46 -50 56 -78 48 -141 -12 -111 -153 -198 -245 -150 -57 30 -100 98 -108 174
-5 40 -1 54 25 94 17 26 52 63 78 82 26 19 54 44 60 55 7 11 36 38 65 60 125
93 378 363 507 539 19 26 38 49 43 50 4 2 8 8 8 14 0 6 13 27 28 47 16 20 57
83 91 141 103 171 143 230 156 230 7 0 25 -14 39 -31z m-3963 -89 c24 -13 49
-61 49 -95 0 -65 -63 -122 -121 -110 -16 4 -44 24 -64 48 -69 81 -35 167 67
167 27 0 58 -5 69 -10z m2909 -846 c0 -11 -536 -544 -547 -544 -18 0 -38 32
-38 59 0 16 14 41 36 65 l37 39 33 -23 c18 -13 29 -18 25 -11 -5 7 -1 18 10
26 14 11 15 14 5 15 -8 0 -11 3 -8 6 4 4 14 1 23 -7 14 -11 15 -10 12 7 -2 15
3 19 23 19 19 -1 25 3 23 15 -2 8 8 24 23 34 l28 19 -25 -28 -25 -29 31 25
c27 21 29 25 15 37 -14 12 -12 13 11 8 15 -4 30 -1 34 6 4 7 3 8 -4 4 -6 -4
-16 4 -23 16 -11 21 -11 22 5 8 16 -13 18 -12 15 5 -2 11 1 21 6 22 6 0 9 -3
8 -8 -2 -5 2 -9 8 -9 5 0 7 -5 3 -12 -4 -7 -3 -8 4 -4 8 5 8 13 0 32 -10 20
-9 27 3 35 8 5 19 9 24 9 6 0 3 -5 -5 -10 -8 -5 -10 -10 -4 -10 18 0 37 28 28
41 -4 7 -3 9 3 6 6 -4 28 9 49 28 21 19 44 35 52 35 7 0 10 5 6 12 -4 6 -3 8
3 5 5 -3 27 9 49 28 41 37 44 38 44 29z m-987 -720 c68 -54 95 -151 64 -227
-8 -18 -32 -49 -55 -69 -96 -87 -212 -66 -268 48 -31 63 -35 143 -10 192 46
90 190 120 269 56z m-6038 -1661 c15 -14 16 -30 10 -116 -4 -55 -3 -98 2 -95
47 22 83 43 83 50 0 4 -9 12 -19 17 -18 10 -46 69 -37 78 7 7 70 -28 83 -46
20 -26 15 -77 -9 -104 -34 -36 -84 -58 -113 -51 -47 12 -55 37 -55 177 0 123
1 127 19 117 11 -5 27 -17 36 -27z"/>
<path d="M5105 7689 c-337 -35 -583 -105 -861 -244 -305 -152 -462 -264 -694
-495 -183 -181 -207 -209 -327 -378 -95 -133 -146 -223 -187 -325 -16 -38 -60
-67 -106 -67 -19 0 -20 -6 -19 -67 0 -38 -4 -81 -10 -97 -6 -16 -10 -30 -9
-31 2 -1 65 -5 142 -9 l138 -6 30 32 c45 48 138 164 192 240 40 57 54 69 89
79 71 19 113 46 216 138 54 49 103 90 108 92 4 2 5 58 2 124 -5 94 -3 125 7
142 21 33 67 54 103 47 25 -5 38 -1 68 25 148 126 450 300 666 385 218 86 631
135 901 107 149 -15 358 -50 373 -62 8 -7 15 -4 23 13 7 13 64 76 128 140 64
65 114 119 112 121 -10 8 -148 46 -225 62 -200 41 -631 58 -860 34z"/>
<path d="M2840 4646 c-14 -7 -24 -17 -23 -22 10 -54 90 -324 119 -401 47 -127
130 -303 143 -303 6 0 17 13 25 28 14 27 12 34 -35 138 -74 160 -117 284 -160
459 -26 107 -34 119 -69 101z"/>
<path d="M5190 6359 c-263 -15 -464 -96 -675 -274 -137 -115 -235 -240 -312
-396 -291 -592 -48 -1357 523 -1642 125 -63 323 -107 478 -107 197 1 354 27
413 68 26 19 36 20 128 12 55 -5 155 -9 223 -10 l122 0 0 109 0 109 -32 5
c-45 8 -469 11 -488 4 -8 -4 -64 -18 -125 -33 -135 -34 -330 -39 -430 -12
-196 53 -345 147 -459 287 -218 269 -291 645 -191 977 72 242 280 479 510 584
106 48 167 62 295 67 162 6 241 -10 377 -77 l101 -50 221 0 221 0 0 164 0 165
-43 6 c-24 4 -53 5 -63 3 -11 -1 -57 -45 -103 -96 l-83 -93 -54 55 c-127 130
-311 188 -554 175z"/>
<path d="M6949 5334 c-1 -11 0 -34 1 -52 1 -26 -9 -44 -52 -95 -76 -87 -108
-131 -108 -150 0 -8 19 -30 43 -48 23 -18 63 -52 89 -76 l47 -43 294 0 294 0
24 -26 c30 -33 208 -138 217 -129 9 8 20 262 21 468 l1 157 -397 0 c-219 0
-415 3 -435 6 -33 6 -38 4 -39 -12z"/>
<path d="M6847 2389 c7 -7 15 -10 18 -7 3 3 -2 9 -12 12 -14 6 -15 5 -6 -5z"/>
<path d="M6740 2350 c0 -5 10 -15 23 -21 22 -12 22 -12 3 10 -21 23 -26 26
-26 11z"/>
</g>
</svg>
